<?xml version="1.0" ?><!DOCTYPE svg  PUBLIC '-//W3C//DTD SVG 1.1//EN'  'http://www.w3.org/Graphics/SVG/1.1/DTD/svg11.dtd'><svg enable-background="new 0 0 512 512" height="512px" id="Layer_1" version="1.1" viewBox="0 0 512 512" width="512px" xml:space="preserve" xmlns="http://www.w3.org/2000/svg" xmlns:xlink="http://www.w3.org/1999/xlink"><path d="M511.999,432c0,44.182-35.816,80-80,80H80c-44.183,0-80-35.818-80-80V80C0,35.817,35.817,0,80,0h352  c44.184,0,80,35.817,80,80V432z" fill="#12A5D7"/><path d="M85.251,1555.501l-1.165-1.165C84.429,1554.772,84.82,1555.162,85.251,1555.501z" fill="#FFFFFF"/><path d="M511.999,432V286L374.69,148.69c-3.607-3.989-7.413-7.794-11.402-11.402l-1.033-1.034l-0.062,0.062  c-28.251-25.089-65.439-40.336-106.195-40.336c-88.366,0-160,71.635-160,160c0,48.328,21.427,91.652,55.3,120.99L286.327,512  h145.672C476.183,512,511.999,476.182,511.999,432z" fill="#0891C8"/><path d="M96,256.003c0,63.308,36.801,118.075,90.184,143.974l-76.318-209.109C100.975,210.781,96,232.789,96,256.003  z M364.031,247.918c0-19.774-7.121-33.482-13.193-44.131c-8.109-13.193-15.699-24.337-15.699-37.537  c0-14.709,11.117-28.392,26.867-28.392c0.68,0,1.371,0.095,2.051,0.14c-28.455-26.076-66.379-42.018-108.035-42.018  c-55.915,0-105.09,28.697-133.686,72.129c3.763,0.121,7.286,0.203,10.287,0.203c16.741,0,42.646-2.056,42.646-2.056  c8.605-0.476,9.627,12.159,1.003,13.2c0,0-8.656,1.002-18.309,1.522l58.276,173.298l35.024-105.002l-24.94-68.296  c-8.618-0.521-16.779-1.522-16.779-1.522c-8.63-0.521-7.603-13.676,1.028-13.2c0,0,26.406,2.056,42.119,2.056  c16.728,0,42.671-2.056,42.671-2.056c8.586-0.476,9.613,12.159,0.982,13.2c0,0-8.643,1.002-18.295,1.522l57.832,171.979  l15.965-53.308C359.957,278.849,364.031,261.632,364.031,247.918z M258.826,270.002l-48.02,139.519  c14.329,4.207,29.471,6.498,45.209,6.498c18.619,0,36.502-3.224,53.135-9.087c-0.432-0.68-0.824-1.396-1.148-2.184L258.826,270.002z   M396.408,179.215c0.711,5.115,1.105,10.573,1.105,16.475c0,16.227-3.047,34.473-12.186,57.312l-48.871,141.282  c47.559-27.719,79.541-79.243,79.541-138.273C416.006,228.169,408.898,202.023,396.408,179.215z" fill="#FFFFFF"/></svg>